#!OML:ASF F:\VICON\USERDATA\INSTALL\rory3\rory3.ASF
:FULLY-SPECIFIED
:DEGREES
46
root -0.21535432137626623 16.999912835828727 17.64858432132715 3.3533406191481046 -3.106719761773428 -5.381695522102435
lfemur -22.55681839143983 6.505414108476655 -10.680532803702995
ltibia 97.66725000589753
lfoot 4.161111520703993 -6.94271493169655
ltoes -2.693147501463878
rfemur -23.323500982649666 4.479546948427089 35.25727096120397
rtibia 56.88665011482856
rfoot -17.628636398423403 -16.531598973505716
rtoes 0.5345433851212924
lowerback 17.188318996796156 0.49722033435540536 3.0449721662938356
upperback -0.2508748873003973 1.6133941053346124 3.763993204213585
thorax -10.19153770681798 0.7141788649947416 1.8031992546238174
lowerneck -22.07588328550157 -2.9212606133815493 -1.505531672773426
upperneck 12.652983288930727 -3.698280992259697 1.572259577138886
head 7.495512889310939 -1.6918705296223577 0.22760847609369783
lclavicle -1.9950406571390907e-15 1.5907231534305655e-15
lhumerus -50.188613686779306 -14.82161282409997 99.48446628871844
lradius 96.79503137884852
lwrist 33.0618833186585
lhand -25.35496327165285 2.6108864577309823
lfingers 7.12502
lthumb 1.1688043441057825 32.58833330756713
rclavicle -1.9950406571390907e-15 1.5907231534305655e-15
rhumerus -46.00755954343633 9.282160324876813 -95.58126116658644
rradius 107.30099869615015
rwrist -9.790974710027008
rhand -17.229094472957073 39.29507531440188
rfingers 7.12502
rthumb 9.013653664470263 9.362366367890601
47
root -0.24912805925639764 17.022591727640506 16.769097693044625 3.597280222416258 -2.321416829618993 -5.535698632954
lfemur -28.454458916208537 6.222785395975671 -11.150542455808129
ltibia 96.97728916259834
lfoot 1.600761448365316 -6.190039317952797
ltoes -4.489522350731815
rfemur -20.20085662339713 3.8748145092961592 35.25472860443597
rtibia 54.73817007394377
rfoot -18.701633205490552 -17.09552636118016
rtoes -3.7731593891766972
lowerback 16.976666247747925 0.6403056948199083 3.201657420993329
upperback -0.3895281585785624 1.8321896788455705 3.6060790140060224
thorax -10.188713990630758 0.8032643158205592 1.3138185438682433
lowerneck -22.163793340165967 -3.275021196160246 -1.5538205788083552
upperneck 12.486885199549121 -4.204949846043433 1.7475029204026675
head 7.462839573457703 -1.9155254704415194 0.247928102554698
lclavicle -2.814757636491397e-15 9.959503855314164e-16
lhumerus -52.932783561799866 -15.427927807450757 99.90549549983676
lradius 97.96694399742736
lwrist 33.379234598484274
lhand -24.984633374169125 2.436148302130822
lfingers 7.12502
lthumb 1.5264371387352689 32.40620894941444
rclavicle -2.814757636491397e-15 9.959503855314164e-16
rhumerus -44.37591862398374 10.108605889271036 -95.3171082134451
rradius 108.63164692629314
rwrist -10.217589701433646
rhand -17.11500682407072 39.44727010527967
rfingers 7.12502
rthumb 9.123689580716691 9.519061769075769
48
root -0.2580082876216257 17.10721223480033 16.334643899137028 3.8334708347794186 -1.6343988421979825 -5.6460690632907635
lfemur -33.01538170909311 5.632463779719209 -11.905556933170832
ltibia 94.7332507901211
lfoot -0.3098861054283289 -5.630026218271836
ltoes -6.289648067107919
rfemur -16.99705144171105 3.3548058786454233 35.228332381097296
rtibia 52.227209508310935
rfoot -18.287415271958885 -16.495361029458014
rtoes -7.522023471344545
lowerback 16.692570558550003 0.8230522411115285 3.5024315531980514
upperback -0.558863390151592 2.1225112398290116 3.405681220794641
thorax -10.149936426266489 0.916617434809007 0.6895578194994127
lowerneck -22.207549872622298 -3.623579534041617 -1.6346795927867108
upperneck 12.508625805818937 -4.69671583256284 1.8933388439510743
head 7.4836878523788 -2.1359805545104495 0.25903360420707805
lclavicle -3.4178689295055292e-15 5.583090557018963e-16
lhumerus -55.33987086217443 -16.017100555777926 100.17425744850553
lradius 99.41905328299676
lwrist 33.8180571110722
lhand -24.368921625890174 2.198159275355886
lfingers 7.12502
lthumb 2.1210258810140115 32.154245675941475
rclavicle -3.4178689295055292e-15 5.583090557018963e-16
rhumerus -43.23772981811899 10.601677724296545 -95.04943775894544
rradius 110.11505347908826
rwrist -10.695366221989552
rhand -17.155447804479138 39.69290275414272
rfingers 7.12502
rthumb 9.084725397375076 9.744297397507433
49
root -0.2488555437895871 17.24202337361672 16.635404705034315 4.013522683555243 -0.8987199210743749 -5.720366846670368
lfemur -36.07419012112832 4.848553744559408 -12.64205704116882
ltibia 91.89426975492756
lfoot -1.5551418043508745 -5.102061195663661
ltoes -7.503020350013738
rfemur -13.232663597604333 2.885602527237393 35.26896673325031
rtibia 50.270635660359105
rfoot -16.153135591646297 -14.806345116586094
rtoes -9.951615580051646
lowerback 16.42298431570089 1.0474300393947555 3.979698768136748
upperback -0.7243129001932231 2.4934580729279223 3.214296043663602
thorax -10.089327528094769 1.0582303934043642 0.04634300904328881
lowerneck -22.13354064613559 -3.937669121765204 -1.7053925724080714
upperneck 12.703661817707474 -5.144165449706646 2.054452568348827
head 7.546376899758879 -2.336711447439928 0.2733575673836174
lclavicle -3.3213543159290094e-15 6.283484104069839e-16
lhumerus -57.24585511789088 -16.152685492502414 100.32902016871407
lradius 100.9765691479427
lwrist 34.26202292921588
lhand -23.653875596179386 1.9984310975165216
lfingers 7.12502
lthumb 2.811532601088838 31.93631364197587
rclavicle -3.3213543159290094e-15 6.283484104069839e-16
rhumerus -42.21573912132912 10.94830905909002 -94.74799914128306
rradius 111.56513434144037
rwrist -11.039807593310533
rhand -17.240720647138694 39.937598729372084
rfingers 7.12502
rthumb 9.002601385482121 9.96752187286653
50
root -0.24331575065660682 17.377637755988992 16.09538387410744 3.9608756477686446 -0.3404609487810847 -5.896867178221663
lfemur -39.27498310080436 3.6206409840729656 -13.694676182925352
ltibia 86.80021798163563
lfoot -3.235049949520495 -5.0603013711609
ltoes -9.286863613863723
rfemur -10.399720303827243 2.1618388829651813 34.90934910522088
rtibia 46.48016484233858
rfoot -13.048832327567608 -12.594670130941385
rtoes -11.82992694438409
lowerback 16.065486265117073 1.1794258610734885 4.287893922022924
upperback -0.9349134442689957 2.7106941413735717 2.947963437881901
thorax -10.058617788654713 1.135172592330938 -0.7667696883973133
lowerneck -22.00228778350442 -4.278567994925322 -1.7874284175891346
upperneck 12.870027793877917 -5.637457844532045 2.1287957364068917
head 7.584993820510042 -2.561956948226795 0.25952768351272726
lclavicle -4.505832786256129e-15 -2.306897523747047e-16
lhumerus -59.845601209420316 -16.124623109330066 100.19405768370784
lradius 101.82721282908574
lwrist 34.360048211884646
lhand -23.257423999018886 1.9601962379155393
lfingers 7.12502
lthumb 3.1943558008021515 31.884117667876392
rclavicle -4.505832786256129e-15 -2.306897523747047e-16
rhumerus -41.89171328604817 10.865368855482902 -94.60278826604018
rradius 112.44340710232342
rwrist -11.231932180931201
rhand -17.350213976356176 39.99687488819597
rfingers 7.12502
rthumb 8.897131907315778 10.063212951757068
51
root -0.20996851017153795 17.570259617953273 17.314120967129927 3.9451985010770696 0.5843548966125358 -5.710378098904445
lfemur -39.77552368378643 2.4693849411976747 -14.291733767466322
ltibia 82.97300056682916
lfoot -3.5625326289400836 -4.874752846006814
ltoes -10.540429422205737
rfemur -6.226372503434796 1.5765029502306245 34.7792761723349
rtibia 44.89663536219109
rfoot -7.703794219106674 -9.788566940468277
rtoes -11.114382646483582
lowerback 15.872739150315969 1.352743237531166 4.782585517461048
upperback -1.058877146131554 2.993150897834549 2.7607461790958556
thorax -9.986439188765795 1.2372606246712012 -1.2551631747119485
lowerneck -21.588483808744314 -4.450306883650426 -1.8065060568678613
upperneck 13.127079862789413 -5.887304511391853 2.2296563242576792
head 7.623474789410954 -2.6805196461283654 0.26654516360324504
lclavicle -3.582788638684438e-15 4.385625705382198e-16
lhumerus -61.07437386721112 -15.178324694287758 100.05064605334628
lradius 102.71620420598865
lwrist 34.562434568380276
lhand -23.13360749383377 2.1502109354835466
lfingers 7.12502
lthumb 3.3139053464182373 32.069929311523374
rclavicle -3.582788638684438e-15 4.385625705382198e-16
rhumerus -41.12226115012848 11.164129049070759 -94.2461715711888
rradius 113.33925131343082
rwrist -11.074346242270813
rhand -17.161760627955076 39.99009611641541
rfingers 7.12502
rthumb 9.079210832469096 10.16993244736284
52
root -0.18218731270843452 17.753922520047954 17.7025780585625 3.762716946854865 1.4343575618390476 -5.498762470925917
lfemur -40.45778106876686 1.0149480206324968 -15.240914077667748
ltibia 76.81620209323421
lfoot -4.2929340918586405 -5.346700005332279
ltoes -12.818890940803486
rfemur -2.7976095089841344 0.8047592691960541 34.21066263339892
rtibia 41.569972982843936
rfoot -1.3826342814708852 -7.063280078520982
rtoes -9.283901005562665
lowerback 15.485075773702816 1.440121088826377 4.993926968189438
upperback -1.2442382807239867 3.100665825551343 2.4704403043321115
thorax -9.894201012108663 1.272174655157364 -1.813202577023758
lowerneck -21.036583024362635 -4.644896906583966 -1.84948594176776
upperneck 13.37908444867068 -6.178996967320325 2.277340292364186
head 7.633988065925439 -2.8195772399457875 0.2629685647545342
lclavicle -3.821133290758773e-15 2.654121336798832e-16
lhumerus -63.07515413191041 -14.033502021632303 99.59559486037526
lradius 103.08884366669037
lwrist 34.49165341595221
lhand -23.56611000197377 2.579997426827018
lfingers 7.12502
lthumb 2.896219666403816 32.510021367050726
rclavicle -3.821133290758773e-15 2.654121336798832e-16
rhumerus -40.960238034346695 11.271208584629978 -94.00772948958891
rradius 113.72801081444862
rwrist -10.939030280035631
rhand -16.776491381922906 39.72145295553158
rfingers 7.12502
rthumb 9.450998629381168 10.18796410873615
53
root -0.14890729055717128 17.94734495788549 18.49095578804282 3.6471090696327657 2.200000130279534 -5.163079638057123
lfemur -40.05772588730993 -0.29183313054637516 -16.118830995268613
ltibia 69.83606030892336
lfoot -4.330928266267009 -6.416710750033598
ltoes -14.96075133766702
rfemur 0.5191440817689106 0.4066202738746354 33.64785995043795
rtibia 38.37447017296759
rfoot 5.825348385692415 -4.823217914599208
rtoes -5.526727720214865
lowerback 14.957065824754954 1.5569878470183514 5.1360256910557665
upperback -1.4297193064931117 3.212918482408222 2.1686927830965117
thorax -9.711529965493368 1.317051501148427 -2.2730211465779364
lowerneck -20.40950723300426 -4.7911979248691665 -1.8868721813745777
upperneck 13.691240554351543 -6.404793477815333 2.3106909948304333
head 7.652160593723585 -2.92892246553282 0.26226364708976785
lclavicle -3.8123200489028495e-15 2.715746656819903e-16
lhumerus -64.87122782928081 -12.524833979423128 98.92256399566612
lradius 103.28910003089527
lwrist 34.45552393401547
lhand -24.353267269437513 3.021475036194957
lfingers 7.12502
lthumb 2.1360410463768176 32.97177887524809
rclavicle -3.8123200489028495e-15 2.715746656819903e-16
rhumerus -41.02130254828865 11.466066430901108 -93.80752324013767
rradius 113.91316279738481
rwrist -10.88343453711691
rhand -16.20084517296818 39.363462851632256
rfingers 7.12502
rthumb 10.006280054366185 10.25514137762402
